<svg width="652" height="324" viewBox="0 0 652 324" fill="none" xmlns="http://www.w3.org/2000/svg">
<path opacity="0.6" d="M0.491033 56.1059C0.48898 93.3152 0.476968 321.678 0.491319 323.508C0.505843 325.36 275.691 307.352 314.471 304.805C317.099 304.633 318.991 302.46 318.991 299.827V71.7629C318.991 69.099 316.903 66.9029 314.242 66.7692L5.74188 51.2716C2.88564 51.1281 0.491191 53.2461 0.491033 56.1059Z" fill="#121533"/>
<path opacity="0.6" d="M651.501 56.0981C651.503 93.3074 651.515 321.67 651.501 323.5C651.486 325.352 376.301 307.344 337.522 304.797C334.893 304.625 333.001 302.452 333.001 299.819V71.7551C333.001 69.0912 335.089 66.8951 337.75 66.7614L646.25 51.2638C649.107 51.1203 651.501 53.2383 651.501 56.0981Z" fill="#121533"/>
<rect x="95" width="465" height="324" rx="5" fill="#121533"/>
<rect x="95.5" y="0.5" width="464" height="323" rx="4.5" stroke="url(#paint0_linear_1861_3753)" stroke-opacity="0.8"/>
<defs>
<linearGradient id="paint0_linear_1861_3753" x1="91.585" y1="323.523" x2="569.492" y2="15.4239" gradientUnits="userSpaceOnUse">
<stop stop-color="#3461FF" stop-opacity="0"/>
<stop offset="0.485" stop-color="#8454EB"/>
<stop offset="1" stop-color="#3461FF" stop-opacity="0"/>
</linearGradient>
</defs>
</svg>
