<svg width="24" height="24" viewBox="0 0 24 24" fill="none" xmlns="http://www.w3.org/2000/svg">
<g clip-path="url(#clip0_91_4419)">
<path fill-rule="evenodd" clip-rule="evenodd" d="M5.2035 1.55117C6.0358 1.00404 7.09173 1.31954 7.56895 2.11491L9.70192 5.66984C10.1827 6.47108 9.94914 7.50865 9.17148 8.02666L7.67508 9.02345C7.55723 9.10195 7.53889 9.24531 7.60622 9.34181C8.31711 10.3607 9.54972 12.047 10.5984 13.0957C11.6471 14.1445 13.3338 15.3772 14.3525 16.0881C14.449 16.1554 14.5923 16.1371 14.6709 16.0193L15.6685 14.5229C16.1866 13.7456 17.2239 13.5124 18.0249 13.993L21.5799 16.126C22.3755 16.6033 22.6909 17.6596 22.1434 18.4919C21.7712 19.0577 21.2115 19.8327 20.5327 20.5272C19.8669 21.2083 19.0169 21.8849 18.0545 22.1428C16.7027 22.5051 15.1023 22.0442 13.9504 21.5855C12.7548 21.1095 11.834 20.5485 11.7566 20.5009L11.7522 20.4982L11.741 20.4912L11.7315 20.485L11.7299 20.4839C11.6236 20.4137 8.60583 18.4194 6.94013 16.7537C5.27446 15.088 3.28068 12.071 3.21064 11.9649L3.20907 11.9625L3.20289 11.953L3.19586 11.9419L3.19314 11.9375C3.14565 11.8602 2.58458 10.9394 2.10848 9.74382C1.64975 8.59182 1.18879 6.99137 1.55125 5.63943C1.8093 4.67695 2.4862 3.82703 3.16757 3.16142C3.86232 2.48275 4.63759 1.9232 5.2035 1.55117ZM6.151 2.78366C6.10803 2.77277 6.06722 2.77847 6.02748 2.80459C5.50422 3.14858 4.81561 3.64844 4.21575 4.23442C3.60252 4.83347 3.15409 5.45343 3.00008 6.02787C2.77432 6.86993 3.05421 8.06424 3.50205 9.18888C3.91865 10.2351 4.41089 11.0534 4.46687 11.1452C4.59941 11.3455 6.48174 14.174 8.0008 15.693C9.51986 17.2121 12.3483 19.0945 12.5488 19.2272C12.6407 19.2832 13.459 19.7754 14.5052 20.1919C15.6299 20.6397 16.8242 20.9196 17.6663 20.694C18.2407 20.54 18.8608 20.0917 19.4599 19.4787C20.046 18.8791 20.5461 18.1907 20.8902 17.6675C20.9164 17.6278 20.9221 17.5869 20.9112 17.544C20.8996 17.4981 20.8674 17.4478 20.8082 17.4122L17.2532 15.2792C17.1388 15.2106 16.9906 15.2439 16.9165 15.3549L15.9189 16.8513C15.3873 17.6488 14.2998 17.8803 13.4942 17.3182C12.4767 16.6082 10.6903 15.3089 9.53771 14.1564C8.38526 13.0039 7.0861 11.2178 6.37607 10.2001C5.81381 9.39431 6.04563 8.30654 6.8435 7.77507L8.3399 6.77827C8.45099 6.70427 8.48435 6.55605 8.41568 6.44159L6.28271 2.88665C6.24719 2.82744 6.19689 2.79529 6.151 2.78366Z" fill="white"/>
</g>
<defs>
<clipPath id="clip0_91_4419">
<rect width="24" height="24" fill="white"/>
</clipPath>
</defs>
</svg>
