<svg width="18" height="14" viewBox="0 0 18 14" fill="none" xmlns="http://www.w3.org/2000/svg">
<path d="M0.632812 4.21875V11.1858C0.632813 11.8319 0.889465 12.4515 1.34631 12.9083C1.80315 13.3652 2.42276 13.6218 3.06884 13.6218H15.249C15.895 13.6218 16.5147 13.3652 16.9715 12.9083C17.4283 12.4515 17.685 11.8319 17.685 11.1858V4.21875L10.4354 8.67912C10.0515 8.91529 9.60962 9.04033 9.15891 9.04033C8.70819 9.04033 8.26631 8.91529 7.88243 8.67912L0.632812 4.21875Z" fill="#B1BAED"/>
<path d="M17.685 2.78796V2.65966C17.685 2.01359 17.4283 1.39397 16.9715 0.937129C16.5147 0.480285 15.895 0.223633 15.249 0.223633H3.06884C2.42276 0.223633 1.80315 0.480285 1.34631 0.937129C0.889465 1.39397 0.632813 2.01359 0.632812 2.65966V2.78796L8.52067 7.64215C8.71261 7.76023 8.93355 7.82276 9.15891 7.82276C9.38426 7.82276 9.6052 7.76023 9.79715 7.64215L17.685 2.78796Z" fill="#B1BAED"/>
</svg>
