<svg width="24" height="24" viewBox="0 0 24 24" fill="none" xmlns="http://www.w3.org/2000/svg">
<path fill-rule="evenodd" clip-rule="evenodd" d="M2.97781 12C3.49216 12.5893 4.48839 13.6528 5.79034 14.672C7.54192 16.0433 9.74005 17.25 12 17.25C14.2599 17.25 16.4581 16.0433 18.2096 14.672C19.5116 13.6528 20.5078 12.5893 21.0222 12C20.5078 11.4107 19.5116 10.3472 18.2096 9.32797C16.4581 7.95674 14.2599 6.75 12 6.75C9.74005 6.75 7.54191 7.95674 5.79034 9.32797C4.48839 10.3472 3.49216 11.4107 2.97781 12ZM4.8657 8.14686C6.71006 6.70298 9.23816 5.25 12 5.25C14.7618 5.25 17.2899 6.70298 19.1343 8.14686C20.9955 9.60393 22.2692 11.1378 22.5371 11.4705C22.787 11.7808 22.787 12.2192 22.5371 12.5295C22.2692 12.8622 20.9955 14.3961 19.1343 15.8531C17.2899 17.297 14.7618 18.75 12 18.75C9.23816 18.75 6.71006 17.297 4.8657 15.8531C3.00447 14.3961 1.73081 12.8622 1.46285 12.5295C1.21299 12.2192 1.21298 11.7808 1.46285 11.4705C1.7308 11.1378 3.00447 9.60393 4.8657 8.14686Z" fill="white"/>
<path fill-rule="evenodd" clip-rule="evenodd" d="M12 9.75C10.7574 9.75 9.75 10.7574 9.75 12C9.75 13.2426 10.7574 14.25 12 14.25C13.2426 14.25 14.25 13.2426 14.25 12C14.25 10.7574 13.2426 9.75 12 9.75ZM8.25 12C8.25 9.92893 9.92893 8.25 12 8.25C14.0711 8.25 15.75 9.92893 15.75 12C15.75 14.0711 14.0711 15.75 12 15.75C9.92893 15.75 8.25 14.0711 8.25 12Z" fill="white"/>
</svg>
