<svg width="459" height="500" viewBox="0 0 459 500" fill="none" xmlns="http://www.w3.org/2000/svg">
<path fill-rule="evenodd" clip-rule="evenodd" d="M353.91 1.34222C345.361 -1.3131 334.407 -0.247126 326.859 6.51143C319.276 0.0469771 308.701 -1.37385 299.996 1.34392C280.141 7.53085 274.024 29.7032 279.562 46.4392C284.018 59.8646 293.629 69.7834 302.926 76.2921C307.593 79.5594 312.269 82.0321 316.348 83.703C320.272 85.3106 324.108 86.3688 326.979 86.3688C329.866 86.3688 333.727 85.2839 337.662 83.6575C341.757 81.9646 346.453 79.4663 351.131 76.1832C360.439 69.6499 370.061 59.7292 374.388 46.4233C379.917 29.6808 373.75 7.5252 353.91 1.34222ZM345.04 18.2892C342.456 18.0323 340.146 19.8517 339.881 22.353C339.615 24.8544 341.495 27.0904 344.079 27.3474C345.732 27.5118 346.851 28.1776 347.587 29.0781C348.353 30.0157 348.951 31.5235 348.875 33.6928C348.788 36.2059 350.822 38.3115 353.419 38.3958C356.015 38.4802 358.19 36.5113 358.277 33.9982C358.414 30.062 357.342 26.3385 354.966 23.43C352.559 20.4844 349.064 18.6894 345.04 18.2892ZM377.006 224.813C376.897 265.079 376.774 310.447 349.765 355.912C251.397 505.409 71.3736 374.032 90.4207 301.048C100.295 274.828 129.461 271.793 148.058 281.902C153.923 286.78 159.01 293.637 164.479 301.009L164.481 301.011C165.353 302.187 166.235 303.376 167.132 304.572C169.614 308.473 172.699 312.544 177.006 316.838C183.143 323.708 190.321 330.129 199.482 334.909C205.65 338.411 212.178 340.803 218.706 342.246C234.198 346.821 247.245 345.524 258.009 340.824C287.319 331.223 306.51 287.048 302.353 238.363C301.882 212.31 294.972 189.246 283.647 169.637C283.693 169.642 283.74 169.648 283.787 169.653C283.234 168.777 282.677 167.91 282.117 167.053C275.029 155.372 266.358 144.965 256.551 135.934C214.591 95.468 164.441 89.9248 137.867 94.4064C-19.1353 108.858 -47.1609 340.261 80.2657 449.199C172.956 528.44 370.067 523.977 437.842 366.816C461.649 321.164 460.13 272.297 457.717 194.66C457.445 185.911 457.162 176.798 456.902 167.282V99.7223C440.564 99.471 410.374 106.731 391.583 133.491C389.542 136.123 387.668 138.939 386 141.946C379.482 150.449 373.134 168.366 377.136 207.528C377.037 213.167 377.021 218.93 377.006 224.801V224.803V224.806V224.808V224.811V224.813Z" fill="url(#paint0_linear_1418_3526)"/>
<defs>
<linearGradient id="paint0_linear_1418_3526" x1="229" y1="46.5" x2="229.499" y2="499.705" gradientUnits="userSpaceOnUse">
<stop stop-color="#70DBE3"/>
<stop offset="0.335" stop-color="#52ACEE"/>
<stop offset="1" stop-color="#1639F4"/>
</linearGradient>
</defs>
</svg>
