<svg width="778" height="780" viewBox="0 0 778 780" fill="none" xmlns="http://www.w3.org/2000/svg">
<mask id="mask0_1644_3685" style="mask-type:alpha" maskUnits="userSpaceOnUse" x="0" y="0" width="778" height="780">
<rect width="778" height="780" fill="#161A42"/>
</mask>
<g mask="url(#mask0_1644_3685)">
<circle cx="465.721" cy="298.857" r="50.3669" transform="rotate(11.3185 465.721 298.857)" fill="url(#paint0_linear_1644_3685)"/>
<circle cx="466.798" cy="301.296" r="55.3931" transform="rotate(-168.682 466.798 301.296)" fill="url(#paint1_linear_1644_3685)"/>
<circle cx="390.837" cy="524.76" r="69.4761" transform="rotate(11.3185 390.837 524.76)" fill="url(#paint2_linear_1644_3685)"/>
<circle cx="370.077" cy="375.748" r="8.29565" transform="rotate(11.3185 370.077 375.748)" fill="#555D75"/>
<circle cx="527.967" cy="439.966" r="18.6652" transform="rotate(-168.682 527.967 439.966)" fill="url(#paint3_linear_1644_3685)"/>
<g opacity="0.5" filter="url(#filter0_f_1644_3685)">
<circle cx="77.7717" cy="77.7717" r="77.7717" transform="matrix(-0.980551 -0.196262 -0.196262 0.980551 451.047 516.718)" fill="#FFA336"/>
</g>
<g opacity="0.5" filter="url(#filter1_f_1644_3685)">
<circle cx="52.3501" cy="52.3501" r="52.3501" transform="matrix(-0.980551 -0.196262 -0.196262 0.980551 504.211 230.549)" fill="#FFA336"/>
</g>
<circle cx="293.208" cy="323.21" r="23.1217" transform="rotate(11.3185 293.208 323.21)" fill="url(#paint4_linear_1644_3685)"/>
</g>
<defs>
<filter id="filter0_f_1644_3685" x="202.738" y="420.927" width="313.574" height="313.573" filterUnits="userSpaceOnUse" color-interpolation-filters="sRGB">
<feFlood flood-opacity="0" result="BackgroundImageFix"/>
<feBlend mode="normal" in="SourceGraphic" in2="BackgroundImageFix" result="shape"/>
<feGaussianBlur stdDeviation="39.5" result="effect1_foregroundBlur_1644_3685"/>
</filter>
<filter id="filter1_f_1644_3685" x="311.246" y="140.246" width="262.719" height="262.721" filterUnits="userSpaceOnUse" color-interpolation-filters="sRGB">
<feFlood flood-opacity="0" result="BackgroundImageFix"/>
<feBlend mode="normal" in="SourceGraphic" in2="BackgroundImageFix" result="shape"/>
<feGaussianBlur stdDeviation="39.5" result="effect1_foregroundBlur_1644_3685"/>
</filter>
<linearGradient id="paint0_linear_1644_3685" x1="415.354" y1="298.857" x2="516.088" y2="298.857" gradientUnits="userSpaceOnUse">
<stop stop-color="#1CD8D2"/>
<stop offset="1" stop-color="#93EDC7"/>
</linearGradient>
<linearGradient id="paint1_linear_1644_3685" x1="441.846" y1="245.903" x2="411.745" y2="323.937" gradientUnits="userSpaceOnUse">
<stop stop-color="#A22DFF"/>
<stop offset="1" stop-color="#FF95DB"/>
</linearGradient>
<linearGradient id="paint2_linear_1644_3685" x1="321.361" y1="524.76" x2="460.313" y2="524.76" gradientUnits="userSpaceOnUse">
<stop stop-color="#F857A6"/>
<stop offset="1" stop-color="#DDFF95"/>
</linearGradient>
<linearGradient id="paint3_linear_1644_3685" x1="509.301" y1="439.966" x2="546.632" y2="439.966" gradientUnits="userSpaceOnUse">
<stop stop-color="#EC008C"/>
<stop offset="1" stop-color="#FC6767"/>
</linearGradient>
<linearGradient id="paint4_linear_1644_3685" x1="282.793" y1="300.088" x2="267.17" y2="337.583" gradientUnits="userSpaceOnUse">
<stop stop-color="#FF2D92"/>
<stop offset="1" stop-color="#FFA25F"/>
</linearGradient>
</defs>
</svg>
